<?xml version="1.0" encoding="UTF-8" standalone="no"?>
<!-- Created with Inkscape (http://www.inkscape.org/) -->

<svg
   xmlns:dc="http://purl.org/dc/elements/1.1/"
   xmlns:cc="http://creativecommons.org/ns#"
   xmlns:rdf="http://www.w3.org/1999/02/22-rdf-syntax-ns#"
   xmlns:svg="http://www.w3.org/2000/svg"
   xmlns="http://www.w3.org/2000/svg"
   xmlns:sodipodi="http://sodipodi.sourceforge.net/DTD/sodipodi-0.dtd"
   xmlns:inkscape="http://www.inkscape.org/namespaces/inkscape"
   width="128.70486mm"
   height="113.488mm"
   viewBox="0 0 128.70486 113.488"
   version="1.1"
   id="svg8"
   inkscape:version="0.92.1 r"
   sodipodi:docname="slideoff.svg">
  <defs
     id="defs2" />
  <sodipodi:namedview
     id="base"
     pagecolor="#ffffff"
     bordercolor="#666666"
     borderopacity="1.0"
     inkscape:pageopacity="0.0"
     inkscape:pageshadow="2"
     inkscape:zoom="0.87564258"
     inkscape:cx="137.84738"
     inkscape:cy="207.0178"
     inkscape:document-units="mm"
     inkscape:current-layer="layer1"
     showgrid="false"
     fit-margin-top="0"
     fit-margin-left="0"
     fit-margin-right="0"
     fit-margin-bottom="0"
     inkscape:window-width="1360"
     inkscape:window-height="746"
     inkscape:window-x="312"
     inkscape:window-y="1096"
     inkscape:window-maximized="0" />
  <metadata
     id="metadata5">
    <rdf:RDF>
      <cc:Work
         rdf:about="">
        <dc:format>image/svg+xml</dc:format>
        <dc:type
           rdf:resource="http://purl.org/dc/dcmitype/StillImage" />
        <dc:title></dc:title>
      </cc:Work>
    </rdf:RDF>
  </metadata>
  <g
     inkscape:label="Layer 1"
     inkscape:groupmode="layer"
     id="layer1"
     transform="translate(-29.014804,-44.740339)">
    <g
       id="g5072"
       transform="matrix(0.75495134,0,0,0.75495134,25.543017,31.950175)">
      <path
         style="opacity:1;fill:none;fill-opacity:1;fill-rule:nonzero;stroke:#323e41;stroke-width:6.70379019;stroke-linecap:round;stroke-linejoin:round;stroke-miterlimit:4;stroke-dasharray:none;stroke-dashoffset:0;stroke-opacity:1;paint-order:normal"
         d="M 40.456486,20.293602 H 119.22394 V 92.535904 H 40.456486 Z"
         id="rect4485"
         inkscape:connector-curvature="0" />
      <path
         style="opacity:1;fill:none;fill-opacity:1;fill-rule:nonzero;stroke:#323e41;stroke-width:6.70379019;stroke-linecap:round;stroke-linejoin:round;stroke-miterlimit:4;stroke-dasharray:none;stroke-dashoffset:0;stroke-opacity:0.99585063;paint-order:normal"
         d="M 60.454441,39.992096 H 139.2219 V 112.2344 H 60.454441 Z"
         id="rect4487"
         inkscape:connector-curvature="0" />
    </g>
    <g
       id="g5068">
      <g
         aria-label="Slide"
         style="font-style:normal;font-variant:normal;font-weight:normal;font-stretch:normal;font-size:35.27777863px;line-height:6.61458302px;font-family:'Open Sans';-inkscape-font-specification:'Open Sans';letter-spacing:0px;word-spacing:0px;fill:#323e41;fill-opacity:1;stroke:none;stroke-width:0.26458332px;stroke-linecap:butt;stroke-linejoin:miter;stroke-opacity:0.99792528"
         id="text5042">
        <path
           d="m 63.450652,151.13675 q 0,-1.87758 -1.016303,-2.87666 -1.016304,-0.99908 -3.669027,-1.94648 -2.652724,-0.9474 -4.065213,-1.98093 -1.395264,-1.05075 -2.101508,-2.37711 -0.689019,-1.34359 -0.689019,-3.06614 0,-2.98 1.98093,-4.90926 1.998155,-1.92925 5.219319,-1.92925 2.204861,0 3.927409,0.99908 1.722548,0.98185 2.652724,2.73885 0.930176,1.757 0.930176,3.8585 h -3.169488 q 0,-2.32544 -1.119656,-3.60012 -1.119656,-1.27469 -3.221165,-1.27469 -1.912028,0 -2.962782,1.06798 -1.050754,1.06798 -1.050754,2.99724 0,1.58474 1.136881,2.65272 1.136882,1.06798 3.513998,1.91203 3.703478,1.22301 5.288222,3.01446 1.601969,1.79145 1.601969,4.68533 0,3.04891 -1.98093,4.89203 -1.98093,1.8259 -5.391574,1.8259 -2.187636,0 -4.047988,-0.9474 -1.843126,-0.96463 -2.911105,-2.68717 -1.050755,-1.73978 -1.050755,-3.97909 h 3.169488 q 0,2.32544 1.291911,3.61735 1.309136,1.29191 3.548449,1.29191 2.084282,0 3.135037,-1.06798 1.050754,-1.06798 1.050754,-2.9111 z"
           style="font-style:normal;font-variant:normal;font-weight:normal;font-stretch:normal;font-family:'Roboto Condensed';-inkscape-font-specification:'Roboto Condensed, ';fill:#323e41;fill-opacity:1;stroke:none;stroke-width:0.26458332px;stroke-opacity:0.99792528"
           id="path5093"
           inkscape:connector-curvature="0" />
        <path
           d="m 73.613684,157.47572 h -3.04891 v -26.45833 h 3.04891 z"
           style="font-style:normal;font-variant:normal;font-weight:normal;font-stretch:normal;font-family:'Roboto Condensed';-inkscape-font-specification:'Roboto Condensed, ';fill:#323e41;fill-opacity:1;stroke:none;stroke-width:0.26458332px;stroke-opacity:0.99792528"
           id="path5095"
           inkscape:connector-curvature="0" />
        <path
           d="m 81.675207,157.47572 h -3.04891 v -18.63796 h 3.04891 z m 0.241157,-23.58168 q 0,0.77515 -0.430637,1.29191 -0.430637,0.51677 -1.309137,0.51677 -0.861273,0 -1.29191,-0.51677 -0.430637,-0.51676 -0.430637,-1.29191 0,-0.77514 0.430637,-1.30913 0.430637,-0.53399 1.29191,-0.53399 0.861274,0 1.291911,0.55121 0.447863,0.53399 0.447863,1.29191 z"
           style="font-style:normal;font-variant:normal;font-weight:normal;font-stretch:normal;font-family:'Roboto Condensed';-inkscape-font-specification:'Roboto Condensed, ';fill:#323e41;fill-opacity:1;stroke:none;stroke-width:0.26458332px;stroke-opacity:0.99792528"
           id="path5097"
           inkscape:connector-curvature="0" />
        <path
           d="m 85.809322,147.31269 q 0,-4.30637 1.601969,-6.56291 1.619195,-2.25653 4.633654,-2.25653 2.669949,0 4.168565,2.17041 v -9.64627 h 3.04891 v 26.45833 h -2.790528 l -0.155029,-1.99815 q -1.498617,2.34266 -4.289144,2.34266 -2.89388,0 -4.547526,-2.23931 -1.63642,-2.25654 -1.670871,-6.3562 z m 3.048909,1.73977 q 0,3.13504 0.930176,4.61643 0.930176,1.46417 3.031684,1.46417 2.273763,0 3.393419,-2.29099 v -9.40511 q -1.171332,-2.23931 -3.376193,-2.23931 -2.101509,0 -3.031685,1.48139 -0.930175,1.46416 -0.947401,4.51307 z"
           style="font-style:normal;font-variant:normal;font-weight:normal;font-stretch:normal;font-family:'Roboto Condensed';-inkscape-font-specification:'Roboto Condensed, ';fill:#323e41;fill-opacity:1;stroke:none;stroke-width:0.26458332px;stroke-opacity:0.99792528"
           id="path5099"
           inkscape:connector-curvature="0" />
        <path
           d="m 110.61401,157.82023 q -3.47955,0 -5.3399,-2.06705 -1.86035,-2.08429 -1.8948,-6.09782 v -2.25654 q 0,-4.16857 1.80868,-6.52846 1.8259,-2.37711 5.08151,-2.37711 3.27284,0 4.89204,2.08428 1.61919,2.08428 1.65364,6.494 v 1.99816 h -10.40419 v 0.43064 q 0,2.99723 1.11966,4.35804 1.13688,1.36082 3.25562,1.36082 1.34358,0 2.35989,-0.49954 1.03353,-0.51677 1.92925,-1.6192 l 1.58474,1.92926 q -1.98093,2.79052 -6.04614,2.79052 z m -0.34451,-16.70871 q -1.8948,0 -2.80775,1.30914 -0.91295,1.29191 -1.03353,4.03076 h 7.33805 v -0.41341 q -0.12057,-2.65273 -0.96462,-3.78961 -0.82683,-1.13688 -2.53215,-1.13688 z"
           style="font-style:normal;font-variant:normal;font-weight:normal;font-stretch:normal;font-family:'Roboto Condensed';-inkscape-font-specification:'Roboto Condensed, ';fill:#323e41;fill-opacity:1;stroke:none;stroke-width:0.26458332px;stroke-opacity:0.99792528"
           id="path5101"
           inkscape:connector-curvature="0" />
      </g>
      <g
         aria-label="off"
         style="font-style:normal;font-variant:normal;font-weight:normal;font-stretch:normal;font-size:35.27777863px;line-height:6.61458302px;font-family:'Open Sans';-inkscape-font-specification:'Open Sans';letter-spacing:0px;word-spacing:0px;fill:#323e41;fill-opacity:1;stroke:none;stroke-width:0.26458332px;stroke-linecap:butt;stroke-linejoin:miter;stroke-opacity:0.99792528"
         id="text5046">
        <path
           d="m 121.25334,147.61745 q 0,-4.03076 1.8259,-6.37343 1.8259,-2.34266 4.97816,-2.34266 3.16949,0 4.97816,2.30821 1.8259,2.30822 1.84313,6.3562 v 1.98093 q 0,4.09967 -1.84313,6.39066 -1.8259,2.29098 -4.94371,2.29098 -3.11781,0 -4.94371,-2.23931 -1.8259,-2.23931 -1.8948,-6.16672 z m 1.92925,1.92925 q 0,3.22117 1.29191,5.06429 1.30914,1.84313 3.61735,1.84313 2.35989,0 3.60013,-1.77422 1.25746,-1.77423 1.27468,-5.08152 v -1.98093 q 0,-3.22116 -1.30913,-5.06429 -1.30914,-1.86035 -3.60013,-1.86035 -2.22209,0 -3.53122,1.80867 -1.30914,1.80868 -1.34359,4.97817 z"
           style="font-style:normal;font-variant:normal;font-weight:300;font-stretch:normal;font-family:'Roboto Condensed';-inkscape-font-specification:'Roboto Condensed, Light';fill:#323e41;fill-opacity:1;stroke:none;stroke-width:0.26458332px;stroke-opacity:0.99792528"
           id="path5104"
           inkscape:connector-curvature="0" />
        <path
           d="m 140.52865,157.88383 v -16.91541 h -2.5666 v -1.72255 h 2.5666 v -2.44602 q 0.0344,-2.7733 1.27468,-4.25469 1.25746,-1.48139 3.46232,-1.48139 0.99908,0 1.84313,0.29283 l -0.1378,1.757 q -0.75792,-0.18948 -1.5503,-0.18948 -1.39526,0 -2.18763,1.05075 -0.77515,1.03353 -0.77515,2.98001 v 2.29099 h 3.6518 v 1.72255 h -3.6518 v 16.91541 z"
           style="font-style:normal;font-variant:normal;font-weight:300;font-stretch:normal;font-family:'Roboto Condensed';-inkscape-font-specification:'Roboto Condensed, Light';fill:#323e41;fill-opacity:1;stroke:none;stroke-width:0.26458332px;stroke-opacity:0.99792528"
           id="path5106"
           inkscape:connector-curvature="0" />
        <path
           d="m 151.13954,157.88383 v -16.91541 h -2.5666 v -1.72255 h 2.5666 v -2.44602 q 0.0344,-2.7733 1.27469,-4.25469 1.25746,-1.48139 3.46232,-1.48139 0.99907,0 1.84312,0.29283 l -0.1378,1.757 q -0.75792,-0.18948 -1.55029,-0.18948 -1.39527,0 -2.18764,1.05075 -0.77515,1.03353 -0.77515,2.98001 v 2.29099 h 3.65181 v 1.72255 h -3.65181 v 16.91541 z"
           style="font-style:normal;font-variant:normal;font-weight:300;font-stretch:normal;font-family:'Roboto Condensed';-inkscape-font-specification:'Roboto Condensed, Light';fill:#323e41;fill-opacity:1;stroke:none;stroke-width:0.26458332px;stroke-opacity:0.99792528"
           id="path5108"
           inkscape:connector-curvature="0" />
      </g>
      <g
         aria-label="#"
         transform="matrix(0.26458333,0,0,0.26458333,7.3461875,12.377342)"
         style="font-style:normal;font-variant:normal;font-weight:normal;font-stretch:normal;font-size:133.33332825px;line-height:25px;font-family:Abel;-inkscape-font-specification:Abel;letter-spacing:0px;word-spacing:0px;fill:#313d40;fill-opacity:0.99607843;stroke:none;stroke-width:1px;stroke-linecap:butt;stroke-linejoin:miter;stroke-opacity:1"
         id="flowRoot5052">
        <path
           d="m 118.16015,524.04991 h -16.66666 l -4.231772,26.69271 h -5.859375 l 4.231771,-26.69271 H 81.897135 v -6.18489 H 96.610676 L 101.16797,489.4145 H 86.063802 v -6.38021 h 16.080728 l 4.36198,-27.08333 h 5.85937 l -4.36197,27.08333 h 16.73177 l 4.36197,-27.08333 h 5.92448 l -4.36198,27.08333 h 12.23959 v 6.38021 h -13.28125 l -4.55729,28.45052 h 13.73697 v 6.18489 h -14.71354 l -4.23177,26.69271 h -5.92448 z m -15.6901,-6.18489 h 16.66667 l 4.55729,-28.45052 h -16.66667 z"
           style="font-style:normal;font-variant:normal;font-weight:300;font-stretch:normal;font-family:'Roboto Condensed';-inkscape-font-specification:'Roboto Condensed,  Light'"
           id="path5111"
           inkscape:connector-curvature="0" />
      </g>
    </g>
  </g>
</svg>
